<mxfile host="app.diagrams.net" agent="Mozilla/5.0 (Windows NT 10.0; Win64; x64) AppleWebKit/537.36 (KHTML, like Gecko) Chrome/127.0.0.0 Safari/537.36 Edg/127.0.0.0" version="24.7.7">
  <diagram name="PÃ¡gina-1" id="n75wQp88fCrZZrAA8XCF">
    <mxGraphModel grid="1" page="1" gridSize="10" guides="1" tooltips="1" connect="1" arrows="1" fold="1" pageScale="1" pageWidth="827" pageHeight="1169" math="0" shadow="0">
      <root>
        <mxCell id="0" />
        <mxCell id="1" parent="0" />
        <mxCell id="mqtibJlAzvxEox18bP8K-5" style="edgeStyle=orthogonalEdgeStyle;rounded=0;orthogonalLoop=1;jettySize=auto;html=1;entryX=0;entryY=0.5;entryDx=0;entryDy=0;exitX=0.5;exitY=0.5;exitDx=0;exitDy=0;exitPerimeter=0;endArrow=none;endFill=0;" edge="1" parent="1" source="5N2nGvhwC6CYWRM-oHPG-1" target="5N2nGvhwC6CYWRM-oHPG-62">
          <mxGeometry relative="1" as="geometry">
            <Array as="points">
              <mxPoint x="-125" y="360" />
              <mxPoint x="70" y="360" />
              <mxPoint x="70" y="410" />
            </Array>
          </mxGeometry>
        </mxCell>
        <mxCell id="oiONlqSMJKVid-jjGNNG-3" style="edgeStyle=orthogonalEdgeStyle;rounded=0;orthogonalLoop=1;jettySize=auto;html=1;entryX=0;entryY=0.5;entryDx=0;entryDy=0;endArrow=none;endFill=0;" edge="1" parent="1" source="5N2nGvhwC6CYWRM-oHPG-1" target="5N2nGvhwC6CYWRM-oHPG-66">
          <mxGeometry relative="1" as="geometry">
            <Array as="points">
              <mxPoint x="70" y="360" />
              <mxPoint x="70" y="750" />
            </Array>
          </mxGeometry>
        </mxCell>
        <mxCell id="oiONlqSMJKVid-jjGNNG-4" style="edgeStyle=orthogonalEdgeStyle;rounded=0;orthogonalLoop=1;jettySize=auto;html=1;entryX=0;entryY=0.5;entryDx=0;entryDy=0;endArrow=none;endFill=0;" edge="1" parent="1" source="5N2nGvhwC6CYWRM-oHPG-1" target="5N2nGvhwC6CYWRM-oHPG-65">
          <mxGeometry relative="1" as="geometry">
            <Array as="points">
              <mxPoint x="70" y="360" />
              <mxPoint x="70" y="850" />
            </Array>
          </mxGeometry>
        </mxCell>
        <mxCell id="Pncn--uKeQHRyDMed3---32" style="edgeStyle=orthogonalEdgeStyle;rounded=0;orthogonalLoop=1;jettySize=auto;html=1;exitX=0;exitY=0.5;exitDx=0;exitDy=0;entryX=0.5;entryY=0.5;entryDx=0;entryDy=0;entryPerimeter=0;endArrow=none;endFill=0;" edge="1" parent="1" source="5N2nGvhwC6CYWRM-oHPG-66" target="5N2nGvhwC6CYWRM-oHPG-1">
          <mxGeometry relative="1" as="geometry">
            <Array as="points">
              <mxPoint x="70" y="750" />
              <mxPoint x="70" y="360" />
              <mxPoint x="-125" y="360" />
            </Array>
          </mxGeometry>
        </mxCell>
        <mxCell id="5N2nGvhwC6CYWRM-oHPG-60" value="" style="rounded=0;whiteSpace=wrap;html=1;fillColor=none;" vertex="1" parent="1">
          <mxGeometry x="105" y="220" width="415" height="930" as="geometry" />
        </mxCell>
        <mxCell id="5N2nGvhwC6CYWRM-oHPG-1" value="Usuario" style="shape=umlActor;verticalLabelPosition=bottom;verticalAlign=top;html=1;outlineConnect=0;" vertex="1" parent="1">
          <mxGeometry x="-160" y="280" width="70" height="150" as="geometry" />
        </mxCell>
        <mxCell id="Pncn--uKeQHRyDMed3---17" style="edgeStyle=orthogonalEdgeStyle;rounded=0;orthogonalLoop=1;jettySize=auto;html=1;exitX=0;exitY=0.5;exitDx=0;exitDy=0;endArrow=none;endFill=0;entryX=0.5;entryY=0.5;entryDx=0;entryDy=0;entryPerimeter=0;" edge="1" parent="1" source="5N2nGvhwC6CYWRM-oHPG-61" target="5N2nGvhwC6CYWRM-oHPG-1">
          <mxGeometry relative="1" as="geometry">
            <Array as="points">
              <mxPoint x="70" y="270" />
              <mxPoint x="70" y="360" />
              <mxPoint x="-125" y="360" />
            </Array>
          </mxGeometry>
        </mxCell>
        <mxCell id="oiONlqSMJKVid-jjGNNG-5" style="edgeStyle=orthogonalEdgeStyle;rounded=0;orthogonalLoop=1;jettySize=auto;html=1;entryX=0;entryY=0.5;entryDx=0;entryDy=0;endArrow=none;endFill=0;" edge="1" parent="1" source="5N2nGvhwC6CYWRM-oHPG-1" target="Pncn--uKeQHRyDMed3---26">
          <mxGeometry relative="1" as="geometry">
            <Array as="points">
              <mxPoint x="70" y="360" />
              <mxPoint x="70" y="950" />
            </Array>
          </mxGeometry>
        </mxCell>
        <mxCell id="Pncn--uKeQHRyDMed3---19" style="edgeStyle=orthogonalEdgeStyle;rounded=0;orthogonalLoop=1;jettySize=auto;html=1;exitX=1;exitY=0.5;exitDx=0;exitDy=0;entryX=0;entryY=0.5;entryDx=0;entryDy=0;endArrow=none;endFill=0;" edge="1" parent="1" source="5N2nGvhwC6CYWRM-oHPG-61" target="Pncn--uKeQHRyDMed3---15">
          <mxGeometry relative="1" as="geometry" />
        </mxCell>
        <mxCell id="5N2nGvhwC6CYWRM-oHPG-61" value="Registrar usuario" style="ellipse;whiteSpace=wrap;html=1;" vertex="1" parent="1">
          <mxGeometry x="160" y="239" width="100" height="60" as="geometry" />
        </mxCell>
        <mxCell id="Pncn--uKeQHRyDMed3---20" style="edgeStyle=orthogonalEdgeStyle;rounded=0;orthogonalLoop=1;jettySize=auto;html=1;exitX=1;exitY=0.5;exitDx=0;exitDy=0;entryX=0;entryY=0.5;entryDx=0;entryDy=0;endArrow=none;endFill=0;" edge="1" parent="1" source="5N2nGvhwC6CYWRM-oHPG-62" target="Pncn--uKeQHRyDMed3---15">
          <mxGeometry relative="1" as="geometry" />
        </mxCell>
        <mxCell id="5N2nGvhwC6CYWRM-oHPG-62" value="Iniciar sesion" style="ellipse;whiteSpace=wrap;html=1;" vertex="1" parent="1">
          <mxGeometry x="160" y="379" width="100" height="60" as="geometry" />
        </mxCell>
        <mxCell id="Pncn--uKeQHRyDMed3---27" style="edgeStyle=orthogonalEdgeStyle;rounded=0;orthogonalLoop=1;jettySize=auto;html=1;exitX=1;exitY=0.5;exitDx=0;exitDy=0;entryX=0;entryY=0.5;entryDx=0;entryDy=0;endArrow=none;endFill=0;" edge="1" parent="1" source="5N2nGvhwC6CYWRM-oHPG-63" target="Pncn--uKeQHRyDMed3---25">
          <mxGeometry relative="1" as="geometry" />
        </mxCell>
        <mxCell id="5N2nGvhwC6CYWRM-oHPG-63" value="Ver encuesta" style="ellipse;whiteSpace=wrap;html=1;" vertex="1" parent="1">
          <mxGeometry x="160" y="520" width="100" height="60" as="geometry" />
        </mxCell>
        <mxCell id="5N2nGvhwC6CYWRM-oHPG-64" value="Completar encuesta" style="ellipse;whiteSpace=wrap;html=1;" vertex="1" parent="1">
          <mxGeometry x="160" y="615" width="100" height="60" as="geometry" />
        </mxCell>
        <mxCell id="5N2nGvhwC6CYWRM-oHPG-65" value="Ver historial de encuestas" style="ellipse;whiteSpace=wrap;html=1;" vertex="1" parent="1">
          <mxGeometry x="160" y="820" width="100" height="60" as="geometry" />
        </mxCell>
        <mxCell id="Pncn--uKeQHRyDMed3---34" style="edgeStyle=orthogonalEdgeStyle;rounded=0;orthogonalLoop=1;jettySize=auto;html=1;exitX=1;exitY=0.5;exitDx=0;exitDy=0;entryX=0;entryY=0.5;entryDx=0;entryDy=0;endArrow=none;endFill=0;" edge="1" parent="1" source="5N2nGvhwC6CYWRM-oHPG-66" target="Pncn--uKeQHRyDMed3---33">
          <mxGeometry relative="1" as="geometry" />
        </mxCell>
        <mxCell id="5N2nGvhwC6CYWRM-oHPG-66" value="Ver respuesta de encuesta" style="ellipse;whiteSpace=wrap;html=1;" vertex="1" parent="1">
          <mxGeometry x="160" y="720" width="100" height="60" as="geometry" />
        </mxCell>
        <mxCell id="Pncn--uKeQHRyDMed3---1" value="Cerrar sesion" style="ellipse;whiteSpace=wrap;html=1;" vertex="1" parent="1">
          <mxGeometry x="160" y="1040" width="100" height="60" as="geometry" />
        </mxCell>
        <mxCell id="Pncn--uKeQHRyDMed3---2" value="Admin" style="shape=umlActor;verticalLabelPosition=bottom;verticalAlign=top;html=1;outlineConnect=0;" vertex="1" parent="1">
          <mxGeometry x="-180" y="1270" width="70" height="130" as="geometry" />
        </mxCell>
        <mxCell id="Pncn--uKeQHRyDMed3---6" value="" style="rounded=0;whiteSpace=wrap;html=1;fillColor=none;" vertex="1" parent="1">
          <mxGeometry x="75" y="1240" width="445" height="1000" as="geometry" />
        </mxCell>
        <mxCell id="Pncn--uKeQHRyDMed3---7" value="Registrar admin" style="ellipse;whiteSpace=wrap;html=1;" vertex="1" parent="1">
          <mxGeometry x="120" y="1260" width="100" height="60" as="geometry" />
        </mxCell>
        <mxCell id="Pncn--uKeQHRyDMed3---8" value="Iniciar sesion" style="ellipse;whiteSpace=wrap;html=1;" vertex="1" parent="1">
          <mxGeometry x="120" y="1350" width="100" height="60" as="geometry" />
        </mxCell>
        <mxCell id="Pncn--uKeQHRyDMed3---9" value="Eliminar encuesta" style="ellipse;whiteSpace=wrap;html=1;" vertex="1" parent="1">
          <mxGeometry x="120" y="1650" width="100" height="60" as="geometry" />
        </mxCell>
        <mxCell id="Pncn--uKeQHRyDMed3---10" value="Editar encuesta" style="ellipse;whiteSpace=wrap;html=1;" vertex="1" parent="1">
          <mxGeometry x="115" y="1550" width="110" height="60" as="geometry" />
        </mxCell>
        <mxCell id="Pncn--uKeQHRyDMed3---11" value="Ver historial de encuestas" style="ellipse;whiteSpace=wrap;html=1;" vertex="1" parent="1">
          <mxGeometry x="120" y="1740" width="100" height="60" as="geometry" />
        </mxCell>
        <mxCell id="Pncn--uKeQHRyDMed3---12" value="Ver estadisticas de encuestas" style="ellipse;whiteSpace=wrap;html=1;" vertex="1" parent="1">
          <mxGeometry x="120" y="1850" width="100" height="60" as="geometry" />
        </mxCell>
        <mxCell id="Pncn--uKeQHRyDMed3---13" value="Actualizar datos" style="ellipse;whiteSpace=wrap;html=1;" vertex="1" parent="1">
          <mxGeometry x="120" y="2070" width="100" height="60" as="geometry" />
        </mxCell>
        <mxCell id="Pncn--uKeQHRyDMed3---14" value="Crear encuesta" style="ellipse;whiteSpace=wrap;html=1;" vertex="1" parent="1">
          <mxGeometry x="120" y="1450" width="100" height="60" as="geometry" />
        </mxCell>
        <mxCell id="JSV9mhI6isZAycMhCAZj-5" value="Generar reporte" style="ellipse;whiteSpace=wrap;html=1;" vertex="1" parent="1">
          <mxGeometry x="120" y="1960" width="100" height="60" as="geometry" />
        </mxCell>
        <mxCell id="Pncn--uKeQHRyDMed3---15" value="Validar usuario" style="ellipse;whiteSpace=wrap;html=1;" vertex="1" parent="1">
          <mxGeometry x="375" y="289" width="100" height="60" as="geometry" />
        </mxCell>
        <mxCell id="Pncn--uKeQHRyDMed3---22" style="edgeStyle=orthogonalEdgeStyle;rounded=0;orthogonalLoop=1;jettySize=auto;html=1;exitX=0;exitY=0.5;exitDx=0;exitDy=0;entryX=0.5;entryY=0.5;entryDx=0;entryDy=0;entryPerimeter=0;endArrow=none;endFill=0;" edge="1" parent="1" source="5N2nGvhwC6CYWRM-oHPG-63" target="5N2nGvhwC6CYWRM-oHPG-1">
          <mxGeometry relative="1" as="geometry">
            <Array as="points">
              <mxPoint x="70" y="550" />
              <mxPoint x="70" y="360" />
              <mxPoint x="-125" y="360" />
            </Array>
          </mxGeometry>
        </mxCell>
        <mxCell id="Pncn--uKeQHRyDMed3---24" style="edgeStyle=orthogonalEdgeStyle;rounded=0;orthogonalLoop=1;jettySize=auto;html=1;exitX=0;exitY=0.5;exitDx=0;exitDy=0;entryX=0.5;entryY=0.5;entryDx=0;entryDy=0;entryPerimeter=0;endArrow=none;endFill=0;" edge="1" parent="1" source="5N2nGvhwC6CYWRM-oHPG-64" target="5N2nGvhwC6CYWRM-oHPG-1">
          <mxGeometry relative="1" as="geometry">
            <Array as="points">
              <mxPoint x="70" y="645" />
              <mxPoint x="70" y="360" />
              <mxPoint x="-125" y="360" />
            </Array>
          </mxGeometry>
        </mxCell>
        <mxCell id="Pncn--uKeQHRyDMed3---25" value="Encuesta activa" style="ellipse;whiteSpace=wrap;html=1;" vertex="1" parent="1">
          <mxGeometry x="364" y="520" width="100" height="60" as="geometry" />
        </mxCell>
        <mxCell id="Pncn--uKeQHRyDMed3---37" style="edgeStyle=orthogonalEdgeStyle;rounded=0;orthogonalLoop=1;jettySize=auto;html=1;exitX=1;exitY=0.5;exitDx=0;exitDy=0;entryX=0;entryY=0.5;entryDx=0;entryDy=0;endArrow=none;endFill=0;" edge="1" parent="1" source="Pncn--uKeQHRyDMed3---26" target="Pncn--uKeQHRyDMed3---36">
          <mxGeometry relative="1" as="geometry" />
        </mxCell>
        <mxCell id="Pncn--uKeQHRyDMed3---26" value="Actualizar datos personales" style="ellipse;whiteSpace=wrap;html=1;" vertex="1" parent="1">
          <mxGeometry x="160" y="920" width="100" height="60" as="geometry" />
        </mxCell>
        <mxCell id="Pncn--uKeQHRyDMed3---28" value="+Include" style="text;html=1;align=center;verticalAlign=middle;whiteSpace=wrap;rounded=0;" vertex="1" parent="1">
          <mxGeometry x="280" y="520" width="60" height="30" as="geometry" />
        </mxCell>
        <mxCell id="Pncn--uKeQHRyDMed3---29" value="+Include" style="text;html=1;align=center;verticalAlign=middle;whiteSpace=wrap;rounded=0;" vertex="1" parent="1">
          <mxGeometry x="270" y="239" width="60" height="30" as="geometry" />
        </mxCell>
        <mxCell id="Pncn--uKeQHRyDMed3---30" value="+Include" style="text;html=1;align=center;verticalAlign=middle;whiteSpace=wrap;rounded=0;" vertex="1" parent="1">
          <mxGeometry x="260" y="414" width="60" height="30" as="geometry" />
        </mxCell>
        <mxCell id="oiONlqSMJKVid-jjGNNG-2" style="edgeStyle=orthogonalEdgeStyle;rounded=0;orthogonalLoop=1;jettySize=auto;html=1;exitX=0.5;exitY=1;exitDx=0;exitDy=0;" edge="1" parent="1" source="5N2nGvhwC6CYWRM-oHPG-66" target="5N2nGvhwC6CYWRM-oHPG-66">
          <mxGeometry relative="1" as="geometry" />
        </mxCell>
        <mxCell id="oiONlqSMJKVid-jjGNNG-6" style="edgeStyle=orthogonalEdgeStyle;rounded=0;orthogonalLoop=1;jettySize=auto;html=1;entryX=0;entryY=0.5;entryDx=0;entryDy=0;endArrow=none;endFill=0;" edge="1" parent="1" source="5N2nGvhwC6CYWRM-oHPG-1" target="Pncn--uKeQHRyDMed3---1">
          <mxGeometry relative="1" as="geometry">
            <Array as="points">
              <mxPoint x="70" y="360" />
              <mxPoint x="70" y="1070" />
            </Array>
          </mxGeometry>
        </mxCell>
        <mxCell id="Pncn--uKeQHRyDMed3---33" value="Encuesta respondida" style="ellipse;whiteSpace=wrap;html=1;" vertex="1" parent="1">
          <mxGeometry x="355" y="720" width="100" height="60" as="geometry" />
        </mxCell>
        <mxCell id="Pncn--uKeQHRyDMed3---35" value="+Include" style="text;html=1;align=center;verticalAlign=middle;whiteSpace=wrap;rounded=0;" vertex="1" parent="1">
          <mxGeometry x="282.5" y="720" width="60" height="30" as="geometry" />
        </mxCell>
        <mxCell id="Pncn--uKeQHRyDMed3---36" value="Consultar datos del usuario" style="ellipse;whiteSpace=wrap;html=1;" vertex="1" parent="1">
          <mxGeometry x="355" y="920" width="100" height="60" as="geometry" />
        </mxCell>
        <mxCell id="Pncn--uKeQHRyDMed3---38" value="+Include" style="text;html=1;align=center;verticalAlign=middle;whiteSpace=wrap;rounded=0;" vertex="1" parent="1">
          <mxGeometry x="275" y="920" width="60" height="30" as="geometry" />
        </mxCell>
        <mxCell id="JSV9mhI6isZAycMhCAZj-7" value="" style="endArrow=none;html=1;rounded=0;exitX=0.5;exitY=0.5;exitDx=0;exitDy=0;exitPerimeter=0;" edge="1" parent="1" source="Pncn--uKeQHRyDMed3---2">
          <mxGeometry width="50" height="50" relative="1" as="geometry">
            <mxPoint x="-40" y="1380" as="sourcePoint" />
            <mxPoint x="20" y="1335" as="targetPoint" />
          </mxGeometry>
        </mxCell>
        <mxCell id="JSV9mhI6isZAycMhCAZj-8" value="" style="endArrow=none;html=1;rounded=0;" edge="1" parent="1">
          <mxGeometry width="50" height="50" relative="1" as="geometry">
            <mxPoint x="20" y="2100" as="sourcePoint" />
            <mxPoint x="20" y="1290" as="targetPoint" />
          </mxGeometry>
        </mxCell>
        <mxCell id="JSV9mhI6isZAycMhCAZj-9" value="" style="endArrow=none;html=1;rounded=0;entryX=0;entryY=0.5;entryDx=0;entryDy=0;" edge="1" parent="1" target="Pncn--uKeQHRyDMed3---7">
          <mxGeometry width="50" height="50" relative="1" as="geometry">
            <mxPoint x="20" y="1290" as="sourcePoint" />
            <mxPoint x="10" y="1260" as="targetPoint" />
          </mxGeometry>
        </mxCell>
        <mxCell id="JSV9mhI6isZAycMhCAZj-10" value="" style="endArrow=none;html=1;rounded=0;entryX=0;entryY=0.5;entryDx=0;entryDy=0;" edge="1" parent="1" target="Pncn--uKeQHRyDMed3---8">
          <mxGeometry width="50" height="50" relative="1" as="geometry">
            <mxPoint x="20" y="1380" as="sourcePoint" />
            <mxPoint x="50" y="1390" as="targetPoint" />
          </mxGeometry>
        </mxCell>
        <mxCell id="JSV9mhI6isZAycMhCAZj-11" value="Notificar encuesta" style="ellipse;whiteSpace=wrap;html=1;" vertex="1" parent="1">
          <mxGeometry x="330" y="1450" width="100" height="60" as="geometry" />
        </mxCell>
        <mxCell id="JSV9mhI6isZAycMhCAZj-12" value="" style="endArrow=none;html=1;rounded=0;entryX=0;entryY=0.5;entryDx=0;entryDy=0;exitX=1;exitY=0.5;exitDx=0;exitDy=0;" edge="1" parent="1" source="Pncn--uKeQHRyDMed3---14" target="JSV9mhI6isZAycMhCAZj-11">
          <mxGeometry width="50" height="50" relative="1" as="geometry">
            <mxPoint x="-50" y="1580" as="sourcePoint" />
            <mxPoint y="1530" as="targetPoint" />
          </mxGeometry>
        </mxCell>
        <mxCell id="JSV9mhI6isZAycMhCAZj-13" value="+Include" style="text;html=1;align=center;verticalAlign=middle;whiteSpace=wrap;rounded=0;" vertex="1" parent="1">
          <mxGeometry x="250" y="1450" width="60" height="30" as="geometry" />
        </mxCell>
        <mxCell id="JSV9mhI6isZAycMhCAZj-14" value="Actualizar encuesta" style="ellipse;whiteSpace=wrap;html=1;" vertex="1" parent="1">
          <mxGeometry x="327.5" y="1550" width="105" height="60" as="geometry" />
        </mxCell>
        <mxCell id="JSV9mhI6isZAycMhCAZj-15" value="" style="endArrow=none;html=1;rounded=0;entryX=0;entryY=0.5;entryDx=0;entryDy=0;exitX=1;exitY=0.5;exitDx=0;exitDy=0;" edge="1" parent="1" source="Pncn--uKeQHRyDMed3---10" target="JSV9mhI6isZAycMhCAZj-14">
          <mxGeometry width="50" height="50" relative="1" as="geometry">
            <mxPoint x="230" y="1650" as="sourcePoint" />
            <mxPoint x="280" y="1600" as="targetPoint" />
          </mxGeometry>
        </mxCell>
        <mxCell id="JSV9mhI6isZAycMhCAZj-16" value="+Include" style="text;html=1;align=center;verticalAlign=middle;whiteSpace=wrap;rounded=0;" vertex="1" parent="1">
          <mxGeometry x="250" y="1550" width="60" height="30" as="geometry" />
        </mxCell>
        <mxCell id="JSV9mhI6isZAycMhCAZj-17" value="Validar Usuario_Admin" style="ellipse;whiteSpace=wrap;html=1;" vertex="1" parent="1">
          <mxGeometry x="364" y="1305" width="100" height="60" as="geometry" />
        </mxCell>
        <mxCell id="JSV9mhI6isZAycMhCAZj-18" value="" style="endArrow=none;html=1;rounded=0;exitX=1;exitY=0.5;exitDx=0;exitDy=0;" edge="1" parent="1" source="Pncn--uKeQHRyDMed3---8">
          <mxGeometry width="50" height="50" relative="1" as="geometry">
            <mxPoint x="260" y="1410" as="sourcePoint" />
            <mxPoint x="290" y="1380" as="targetPoint" />
          </mxGeometry>
        </mxCell>
        <mxCell id="JSV9mhI6isZAycMhCAZj-19" value="" style="endArrow=none;html=1;rounded=0;exitX=1;exitY=0.5;exitDx=0;exitDy=0;" edge="1" parent="1" source="Pncn--uKeQHRyDMed3---7">
          <mxGeometry width="50" height="50" relative="1" as="geometry">
            <mxPoint x="240" y="1289.57" as="sourcePoint" />
            <mxPoint x="290" y="1290" as="targetPoint" />
          </mxGeometry>
        </mxCell>
        <mxCell id="JSV9mhI6isZAycMhCAZj-20" value="" style="endArrow=none;html=1;rounded=0;" edge="1" parent="1">
          <mxGeometry width="50" height="50" relative="1" as="geometry">
            <mxPoint x="290" y="1380" as="sourcePoint" />
            <mxPoint x="290" y="1290" as="targetPoint" />
          </mxGeometry>
        </mxCell>
        <mxCell id="JSV9mhI6isZAycMhCAZj-22" value="" style="endArrow=none;html=1;rounded=0;entryX=0;entryY=0.5;entryDx=0;entryDy=0;" edge="1" parent="1" target="JSV9mhI6isZAycMhCAZj-17">
          <mxGeometry width="50" height="50" relative="1" as="geometry">
            <mxPoint x="290" y="1335" as="sourcePoint" />
            <mxPoint x="340" y="1330" as="targetPoint" />
          </mxGeometry>
        </mxCell>
        <mxCell id="JSV9mhI6isZAycMhCAZj-23" value="+Include" style="text;html=1;align=center;verticalAlign=middle;whiteSpace=wrap;rounded=0;" vertex="1" parent="1">
          <mxGeometry x="222.5" y="1380" width="60" height="30" as="geometry" />
        </mxCell>
        <mxCell id="JSV9mhI6isZAycMhCAZj-24" value="+Include" style="text;html=1;align=center;verticalAlign=middle;whiteSpace=wrap;rounded=0;" vertex="1" parent="1">
          <mxGeometry x="225" y="1260" width="60" height="30" as="geometry" />
        </mxCell>
        <mxCell id="JSV9mhI6isZAycMhCAZj-25" value="" style="endArrow=none;html=1;rounded=0;entryX=0;entryY=0.5;entryDx=0;entryDy=0;" edge="1" parent="1" target="Pncn--uKeQHRyDMed3---13">
          <mxGeometry width="50" height="50" relative="1" as="geometry">
            <mxPoint x="20" y="2100" as="sourcePoint" />
            <mxPoint x="80" y="2160" as="targetPoint" />
          </mxGeometry>
        </mxCell>
        <mxCell id="JSV9mhI6isZAycMhCAZj-26" value="" style="endArrow=none;html=1;rounded=0;entryX=0;entryY=0.5;entryDx=0;entryDy=0;" edge="1" parent="1" target="JSV9mhI6isZAycMhCAZj-5">
          <mxGeometry width="50" height="50" relative="1" as="geometry">
            <mxPoint x="20" y="1990" as="sourcePoint" />
            <mxPoint x="-20" y="2010" as="targetPoint" />
          </mxGeometry>
        </mxCell>
        <mxCell id="JSV9mhI6isZAycMhCAZj-27" value="" style="endArrow=none;html=1;rounded=0;entryX=0;entryY=0.5;entryDx=0;entryDy=0;" edge="1" parent="1" target="Pncn--uKeQHRyDMed3---12">
          <mxGeometry width="50" height="50" relative="1" as="geometry">
            <mxPoint x="20" y="1880" as="sourcePoint" />
            <mxPoint x="-20" y="1880" as="targetPoint" />
          </mxGeometry>
        </mxCell>
        <mxCell id="JSV9mhI6isZAycMhCAZj-28" value="" style="endArrow=none;html=1;rounded=0;entryX=0;entryY=0.5;entryDx=0;entryDy=0;" edge="1" parent="1" target="Pncn--uKeQHRyDMed3---11">
          <mxGeometry width="50" height="50" relative="1" as="geometry">
            <mxPoint x="20" y="1770" as="sourcePoint" />
            <mxPoint x="10" y="1780" as="targetPoint" />
          </mxGeometry>
        </mxCell>
        <mxCell id="JSV9mhI6isZAycMhCAZj-29" value="" style="endArrow=none;html=1;rounded=0;entryX=0;entryY=0.5;entryDx=0;entryDy=0;" edge="1" parent="1" target="Pncn--uKeQHRyDMed3---9">
          <mxGeometry width="50" height="50" relative="1" as="geometry">
            <mxPoint x="20" y="1680" as="sourcePoint" />
            <mxPoint x="-30" y="1680" as="targetPoint" />
          </mxGeometry>
        </mxCell>
        <mxCell id="JSV9mhI6isZAycMhCAZj-30" value="" style="endArrow=none;html=1;rounded=0;entryX=0;entryY=0.5;entryDx=0;entryDy=0;" edge="1" parent="1" target="Pncn--uKeQHRyDMed3---10">
          <mxGeometry width="50" height="50" relative="1" as="geometry">
            <mxPoint x="20" y="1580" as="sourcePoint" />
            <mxPoint x="-10" y="1560" as="targetPoint" />
          </mxGeometry>
        </mxCell>
        <mxCell id="JSV9mhI6isZAycMhCAZj-31" value="" style="endArrow=none;html=1;rounded=0;entryX=0;entryY=0.5;entryDx=0;entryDy=0;" edge="1" parent="1" target="Pncn--uKeQHRyDMed3---14">
          <mxGeometry width="50" height="50" relative="1" as="geometry">
            <mxPoint x="20" y="1480" as="sourcePoint" />
            <mxPoint y="1540" as="targetPoint" />
          </mxGeometry>
        </mxCell>
        <mxCell id="JSV9mhI6isZAycMhCAZj-32" value="Descargar reporte" style="ellipse;whiteSpace=wrap;html=1;" vertex="1" parent="1">
          <mxGeometry x="335" y="1960" width="100" height="60" as="geometry" />
        </mxCell>
        <mxCell id="JSV9mhI6isZAycMhCAZj-33" value="Generar Grafica" style="ellipse;whiteSpace=wrap;html=1;" vertex="1" parent="1">
          <mxGeometry x="332.5" y="1850" width="100" height="60" as="geometry" />
        </mxCell>
        <mxCell id="JSV9mhI6isZAycMhCAZj-34" value="" style="endArrow=none;html=1;rounded=0;entryX=0;entryY=0.5;entryDx=0;entryDy=0;exitX=1;exitY=0.5;exitDx=0;exitDy=0;" edge="1" parent="1" source="Pncn--uKeQHRyDMed3---12" target="JSV9mhI6isZAycMhCAZj-33">
          <mxGeometry width="50" height="50" relative="1" as="geometry">
            <mxPoint x="260" y="1990" as="sourcePoint" />
            <mxPoint x="310" y="1940" as="targetPoint" />
          </mxGeometry>
        </mxCell>
        <mxCell id="JSV9mhI6isZAycMhCAZj-35" value="" style="endArrow=none;html=1;rounded=0;entryX=0;entryY=0.5;entryDx=0;entryDy=0;exitX=1;exitY=0.5;exitDx=0;exitDy=0;" edge="1" parent="1" source="JSV9mhI6isZAycMhCAZj-5" target="JSV9mhI6isZAycMhCAZj-32">
          <mxGeometry width="50" height="50" relative="1" as="geometry">
            <mxPoint x="270" y="2070" as="sourcePoint" />
            <mxPoint x="320" y="2020" as="targetPoint" />
          </mxGeometry>
        </mxCell>
        <mxCell id="JSV9mhI6isZAycMhCAZj-38" value="+Include" style="text;html=1;align=center;verticalAlign=middle;whiteSpace=wrap;rounded=0;" vertex="1" parent="1">
          <mxGeometry x="250" y="1960" width="60" height="30" as="geometry" />
        </mxCell>
        <mxCell id="JSV9mhI6isZAycMhCAZj-39" value="+Include" style="text;html=1;align=center;verticalAlign=middle;whiteSpace=wrap;rounded=0;" vertex="1" parent="1">
          <mxGeometry x="250" y="1850" width="60" height="30" as="geometry" />
        </mxCell>
        <mxCell id="5SZZCSlDc91eyIrS_9Lp-1" value="Cerrar sesiÃ³n" style="ellipse;whiteSpace=wrap;html=1;" vertex="1" parent="1">
          <mxGeometry x="120" y="2170" width="100" height="60" as="geometry" />
        </mxCell>
        <mxCell id="5SZZCSlDc91eyIrS_9Lp-2" style="edgeStyle=orthogonalEdgeStyle;rounded=0;orthogonalLoop=1;jettySize=auto;html=1;exitX=0;exitY=0.5;exitDx=0;exitDy=0;entryX=0.5;entryY=0.5;entryDx=0;entryDy=0;entryPerimeter=0;endArrow=none;endFill=0;" edge="1" parent="1" source="5SZZCSlDc91eyIrS_9Lp-1" target="Pncn--uKeQHRyDMed3---2">
          <mxGeometry relative="1" as="geometry">
            <Array as="points">
              <mxPoint x="20" y="2200" />
              <mxPoint x="20" y="1335" />
            </Array>
          </mxGeometry>
        </mxCell>
        <mxCell id="5SZZCSlDc91eyIrS_9Lp-3" value="Consultar datos del usuario" style="ellipse;whiteSpace=wrap;html=1;" vertex="1" parent="1">
          <mxGeometry x="342.5" y="2070" width="100" height="60" as="geometry" />
        </mxCell>
        <mxCell id="5SZZCSlDc91eyIrS_9Lp-5" value="" style="endArrow=none;html=1;rounded=0;entryX=0;entryY=0.5;entryDx=0;entryDy=0;exitX=1;exitY=0.5;exitDx=0;exitDy=0;" edge="1" parent="1" source="Pncn--uKeQHRyDMed3---13" target="5SZZCSlDc91eyIrS_9Lp-3">
          <mxGeometry width="50" height="50" relative="1" as="geometry">
            <mxPoint x="225" y="2099.5" as="sourcePoint" />
            <mxPoint x="340" y="2099.5" as="targetPoint" />
          </mxGeometry>
        </mxCell>
        <mxCell id="5SZZCSlDc91eyIrS_9Lp-6" value="+Include" style="text;html=1;align=center;verticalAlign=middle;whiteSpace=wrap;rounded=0;" vertex="1" parent="1">
          <mxGeometry x="250" y="2060" width="60" height="30" as="geometry" />
        </mxCell>
      </root>
    </mxGraphModel>
  </diagram>
</mxfile>
